<svg width="19" height="19" viewBox="0 0 19 19" fill="none" xmlns="http://www.w3.org/2000/svg">
<path d="M18.0071 17.8222L12.744 12.5591C13.7423 11.3267 14.3432 9.75999 14.3432 8.05417C14.3432 4.09977 11.126 0.882568 7.17156 0.882568C3.21716 0.882568 0 4.09977 0 8.05417C0 12.0086 3.2172 15.2258 7.1716 15.2258C8.87742 15.2258 10.4442 14.6248 11.6766 13.6266L16.9396 18.8897C17.0871 19.0371 17.326 19.0371 17.4735 18.8897L18.0071 18.356C18.1545 18.2086 18.1545 17.9696 18.0071 17.8222ZM7.1716 13.7159C4.04952 13.7159 1.50982 11.1762 1.50982 8.05417C1.50982 4.93208 4.04952 2.39239 7.1716 2.39239C10.2937 2.39239 12.8334 4.93208 12.8334 8.05417C12.8334 11.1762 10.2937 13.7159 7.1716 13.7159Z" fill="#956D84"/>
</svg>
